<svg xmlns="http://www.w3.org/2000/svg" viewBox="0 0 200 200" role="img" aria-label="egg"><defs><linearGradient id="egGrad" x1="0" y1="0" x2="0" y2="1"><stop offset="0" stop-color="#9A8FE8"/><stop offset="0.55" stop-color="#7F77DD"/><stop offset="1" stop-color="#5C4FB0"/></linearGradient><pattern id="egPat" width="22" height="20" patternUnits="userSpaceOnUse"><polygon points="11,2 20,7 20,15 11,20 2,15 2,7" fill="none" stroke="#FFFFFF" stroke-opacity="0.20" stroke-width="1.1"/></pattern><radialGradient id="egGloss" cx="0.3" cy="0.25" r="0.55"><stop offset="0" stop-color="#FFFFFF" stop-opacity="0.55"/><stop offset="1" stop-color="#FFFFFF" stop-opacity="0"/></radialGradient></defs><ellipse cx="100" cy="178" rx="56" ry="9" fill="rgba(0,0,0,0.18)"/><g transform="rotate(-8 100 100)"><path d="M100 22 C 158 22 172 92 172 122 C 172 156 142 178 100 178 C 58 178 28 156 28 122 C 28 92 42 22 100 22 Z" fill="url(#egGrad)"/><path d="M100 22 C 158 22 172 92 172 122 C 172 156 142 178 100 178 C 58 178 28 156 28 122 C 28 92 42 22 100 22 Z" fill="url(#egPat)"/><path d="M100 22 C 158 22 172 92 172 122 C 172 156 142 178 100 178 C 58 178 28 156 28 122 C 28 92 42 22 100 22 Z" fill="url(#egGloss)"/><path d="M100 22 C 158 22 172 92 172 122 C 172 156 142 178 100 178 C 58 178 28 156 28 122 C 28 92 42 22 100 22 Z" fill="none" stroke="#3D3478" stroke-width="2.5" stroke-opacity="0.55"/><ellipse cx="78" cy="68" rx="12" ry="20" fill="#FFFFFF" opacity="0.35"/></g></svg>