<svg xmlns="http://www.w3.org/2000/svg" viewBox="0 0 200 200" role="img" aria-label="وحش_سيرولين_هادئ"><path d="M76 50 L82 30 L88 50 Z" fill="#FFB347" stroke="#212121" stroke-width="1.4" stroke-linejoin="round"/><path d="M112 50 L118 30 L124 50 Z" fill="#FFB347" stroke="#212121" stroke-width="1.4" stroke-linejoin="round"/><ellipse cx="100" cy="106" rx="52" ry="10" fill="rgba(0,0,0,0.10)"/><rect x="54" y="52" width="92" height="100" rx="32" ry="32" fill="#5BC0EB"/><path d="M64 118 Q100 156 136 118 Q100 138 64 118 Z" fill="#369AC4" opacity="0.55"/><circle cx="78" cy="112" r="1.4" fill="#212121" opacity="0.4"/><circle cx="86" cy="116" r="1.4" fill="#212121" opacity="0.4"/><circle cx="114" cy="116" r="1.4" fill="#212121" opacity="0.4"/><circle cx="122" cy="112" r="1.4" fill="#212121" opacity="0.4"/><circle cx="82" cy="120" r="1.4" fill="#212121" opacity="0.4"/><circle cx="118" cy="120" r="1.4" fill="#212121" opacity="0.4"/><circle cx="84" cy="96" r="11" fill="#FFFFFF"/><circle cx="84" cy="96" r="11" fill="none" stroke="#212121" stroke-width="1.6" opacity="0.4"/><circle cx="85" cy="97" r="6" fill="#212121"/><circle cx="87" cy="95" r="2.2" fill="#FFFFFF"/><circle cx="116" cy="96" r="11" fill="#FFFFFF"/><circle cx="116" cy="96" r="11" fill="none" stroke="#212121" stroke-width="1.6" opacity="0.4"/><circle cx="117" cy="97" r="6" fill="#212121"/><circle cx="119" cy="95" r="2.2" fill="#FFFFFF"/><path d="M86 122 Q100 136 114 122" stroke="#212121" stroke-width="3" fill="none" stroke-linecap="round"/></svg>