<svg xmlns="http://www.w3.org/2000/svg" viewBox="0 0 200 200" role="img" aria-label="وحشة_لافندر_مبتسمة"><ellipse cx="50" cy="82" rx="14" ry="22" fill="#FFD166" stroke="#212121" stroke-width="1.4" transform="rotate(-22 50 82)"/><ellipse cx="150" cy="82" rx="14" ry="22" fill="#FFD166" stroke="#212121" stroke-width="1.4" transform="rotate(22 150 82)"/><ellipse cx="100" cy="106" rx="60" ry="10" fill="rgba(0,0,0,0.10)"/><path d="M68 62 Q42 118 62 156 Q100 170 138 156 Q158 118 132 62 Q100 50 68 62 Z" fill="#B39DDB"/><path d="M62 122 Q100 158 138 122 Q100 140 62 122 Z" fill="#8579C2" opacity="0.55"/><circle cx="78" cy="112" r="1.4" fill="#212121" opacity="0.4"/><circle cx="86" cy="116" r="1.4" fill="#212121" opacity="0.4"/><circle cx="114" cy="116" r="1.4" fill="#212121" opacity="0.4"/><circle cx="122" cy="112" r="1.4" fill="#212121" opacity="0.4"/><circle cx="82" cy="120" r="1.4" fill="#212121" opacity="0.4"/><circle cx="118" cy="120" r="1.4" fill="#212121" opacity="0.4"/><circle cx="84" cy="96" r="11" fill="#FFFFFF"/><circle cx="84" cy="96" r="11" fill="none" stroke="#212121" stroke-width="1.6" opacity="0.4"/><circle cx="85" cy="97" r="6" fill="#212121"/><circle cx="87" cy="95" r="2.2" fill="#FFFFFF"/><circle cx="116" cy="96" r="11" fill="#FFFFFF"/><circle cx="116" cy="96" r="11" fill="none" stroke="#212121" stroke-width="1.6" opacity="0.4"/><circle cx="117" cy="97" r="6" fill="#212121"/><circle cx="119" cy="95" r="2.2" fill="#FFFFFF"/><path d="M86 122 Q100 136 114 122" stroke="#212121" stroke-width="3" fill="none" stroke-linecap="round"/></svg>