<svg xmlns="http://www.w3.org/2000/svg" viewBox="0 0 200 200" role="img" aria-label="وحش_شمسي_مفاجأ"><ellipse cx="100" cy="106" rx="58" ry="10" fill="rgba(0,0,0,0.10)"/><path d="M50 80 Q40 130 70 156 Q100 170 130 156 Q160 130 150 80 Q130 50 100 50 Q70 50 50 80 Z" fill="#FFD93D"/><path d="M62 120 Q100 156 138 120 Q100 138 62 120 Z" fill="#E0BB1F" opacity="0.55"/><ellipse cx="72" cy="114" rx="8" ry="5" fill="#FF6FB5" opacity="0.55"/><ellipse cx="128" cy="114" rx="8" ry="5" fill="#FF6FB5" opacity="0.55"/><circle cx="100" cy="94" r="22" fill="#FFFFFF"/><circle cx="100" cy="94" r="22" fill="none" stroke="#212121" stroke-width="2.5" opacity="0.4"/><circle cx="102" cy="96" r="11" fill="#212121"/><circle cx="106" cy="92" r="4" fill="#FFFFFF"/><ellipse cx="100" cy="126" rx="6" ry="8" fill="#5D2F36"/><ellipse cx="101" cy="124" rx="2.5" ry="3" fill="#FFFFFF" opacity="0.5"/></svg>