<svg xmlns="http://www.w3.org/2000/svg" viewBox="0 0 200 200" role="img" aria-label="وحش_مرجاني_بعين_واحدة"><path d="M76 50 L82 30 L88 50 Z" fill="#FFE066" stroke="#212121" stroke-width="1.4" stroke-linejoin="round"/><path d="M112 50 L118 30 L124 50 Z" fill="#FFE066" stroke="#212121" stroke-width="1.4" stroke-linejoin="round"/><ellipse cx="100" cy="106" rx="58" ry="10" fill="rgba(0,0,0,0.10)"/><path d="M50 80 Q40 130 70 156 Q100 170 130 156 Q160 130 150 80 Q130 50 100 50 Q70 50 50 80 Z" fill="#FF6F61"/><path d="M62 120 Q100 156 138 120 Q100 138 62 120 Z" fill="#D9544C" opacity="0.55"/><circle cx="78" cy="112" r="1.4" fill="#212121" opacity="0.4"/><circle cx="86" cy="116" r="1.4" fill="#212121" opacity="0.4"/><circle cx="114" cy="116" r="1.4" fill="#212121" opacity="0.4"/><circle cx="122" cy="112" r="1.4" fill="#212121" opacity="0.4"/><circle cx="82" cy="120" r="1.4" fill="#212121" opacity="0.4"/><circle cx="118" cy="120" r="1.4" fill="#212121" opacity="0.4"/><circle cx="100" cy="94" r="22" fill="#FFFFFF"/><circle cx="100" cy="94" r="22" fill="none" stroke="#212121" stroke-width="2.5" opacity="0.4"/><circle cx="102" cy="96" r="11" fill="#212121"/><circle cx="106" cy="92" r="4" fill="#FFFFFF"/><path d="M82 122 Q100 140 118 122 Q100 130 82 122 Z" fill="#5D2F36"/><rect x="90" y="122" width="6" height="6" fill="#FFFFFF"/><rect x="104" y="122" width="6" height="6" fill="#FFFFFF"/></svg>