<svg xmlns="http://www.w3.org/2000/svg" viewBox="0 0 200 200" role="img" aria-label="وحش_ليموني_بثلاث_عيون"><line x1="100" y1="50" x2="100" y2="22" stroke="#212121" stroke-width="2.6" stroke-linecap="round"/><circle cx="100" cy="16" r="8" fill="#FF7043" stroke="#212121" stroke-width="1.6"/><circle cx="98" cy="14" r="2.4" fill="#FFFFFF" opacity="0.7"/><ellipse cx="100" cy="106" rx="58" ry="10" fill="rgba(0,0,0,0.10)"/><path d="M50 80 Q40 130 70 156 Q100 170 130 156 Q160 130 150 80 Q130 50 100 50 Q70 50 50 80 Z" fill="#A8E063"/><path d="M62 120 Q100 156 138 120 Q100 138 62 120 Z" fill="#7CB342" opacity="0.55"/><circle cx="78" cy="100" r="8" fill="#FFFFFF"/><circle cx="78" cy="100" r="8" fill="none" stroke="#212121" stroke-width="1.4" opacity="0.4"/><circle cx="79" cy="101" r="4" fill="#212121"/><circle cx="80" cy="99" r="1.6" fill="#FFFFFF"/><circle cx="100" cy="90" r="9" fill="#FFFFFF"/><circle cx="100" cy="90" r="9" fill="none" stroke="#212121" stroke-width="1.4" opacity="0.4"/><circle cx="101" cy="91" r="5" fill="#212121"/><circle cx="102" cy="89" r="1.6" fill="#FFFFFF"/><circle cx="122" cy="100" r="8" fill="#FFFFFF"/><circle cx="122" cy="100" r="8" fill="none" stroke="#212121" stroke-width="1.4" opacity="0.4"/><circle cx="123" cy="101" r="4" fill="#212121"/><circle cx="124" cy="99" r="1.6" fill="#FFFFFF"/><path d="M82 122 Q100 140 118 122 Q100 130 82 122 Z" fill="#5D2F36"/><rect x="90" y="122" width="6" height="6" fill="#FFFFFF"/><rect x="104" y="122" width="6" height="6" fill="#FFFFFF"/></svg>