<svg xmlns="http://www.w3.org/2000/svg" viewBox="0 0 200 200" role="img" aria-label="وحشة_أوركيد_ناعمة"><ellipse cx="50" cy="82" rx="14" ry="22" fill="#FFD166" stroke="#212121" stroke-width="1.4" transform="rotate(-22 50 82)"/><ellipse cx="150" cy="82" rx="14" ry="22" fill="#FFD166" stroke="#212121" stroke-width="1.4" transform="rotate(22 150 82)"/><ellipse cx="100" cy="106" rx="50" ry="9" fill="rgba(0,0,0,0.10)"/><ellipse cx="100" cy="100" rx="44" ry="56" fill="#C589E8"/><path d="M64 118 Q100 160 136 118 Q100 140 64 118 Z" fill="#A766CC" opacity="0.55"/><ellipse cx="72" cy="114" rx="8" ry="5" fill="#FF6FB5" opacity="0.55"/><ellipse cx="128" cy="114" rx="8" ry="5" fill="#FF6FB5" opacity="0.55"/><circle cx="84" cy="96" r="11" fill="#FFFFFF"/><circle cx="84" cy="96" r="11" fill="none" stroke="#212121" stroke-width="1.6" opacity="0.4"/><circle cx="85" cy="97" r="6" fill="#212121"/><circle cx="87" cy="95" r="2.2" fill="#FFFFFF"/><circle cx="116" cy="96" r="11" fill="#FFFFFF"/><circle cx="116" cy="96" r="11" fill="none" stroke="#212121" stroke-width="1.6" opacity="0.4"/><circle cx="117" cy="97" r="6" fill="#212121"/><circle cx="119" cy="95" r="2.2" fill="#FFFFFF"/><path d="M94 124 Q100 130 106 124" stroke="#212121" stroke-width="2.4" fill="none" stroke-linecap="round"/></svg>