<svg xmlns="http://www.w3.org/2000/svg" viewBox="0 0 200 200" role="img" aria-label="وحش_سماوي_ودود"><path d="M76 50 L82 30 L88 50 Z" fill="#FFCC66" stroke="#212121" stroke-width="1.4" stroke-linejoin="round"/><path d="M112 50 L118 30 L124 50 Z" fill="#FFCC66" stroke="#212121" stroke-width="1.4" stroke-linejoin="round"/><ellipse cx="100" cy="106" rx="52" ry="10" fill="rgba(0,0,0,0.10)"/><rect x="54" y="52" width="92" height="100" rx="32" ry="32" fill="#7CC8FF"/><path d="M64 118 Q100 156 136 118 Q100 138 64 118 Z" fill="#4FA8E0" opacity="0.55"/><ellipse cx="72" cy="114" rx="8" ry="5" fill="#FF6FB5" opacity="0.55"/><ellipse cx="128" cy="114" rx="8" ry="5" fill="#FF6FB5" opacity="0.55"/><circle cx="84" cy="96" r="11" fill="#FFFFFF"/><circle cx="84" cy="96" r="11" fill="none" stroke="#212121" stroke-width="1.6" opacity="0.4"/><circle cx="85" cy="97" r="6" fill="#212121"/><circle cx="87" cy="95" r="2.2" fill="#FFFFFF"/><circle cx="116" cy="96" r="11" fill="#FFFFFF"/><circle cx="116" cy="96" r="11" fill="none" stroke="#212121" stroke-width="1.6" opacity="0.4"/><circle cx="117" cy="97" r="6" fill="#212121"/><circle cx="119" cy="95" r="2.2" fill="#FFFFFF"/><path d="M86 122 Q100 136 114 122" stroke="#212121" stroke-width="3" fill="none" stroke-linecap="round"/></svg>