<svg xmlns="http://www.w3.org/2000/svg" viewBox="0 0 200 200" role="img" aria-label="وحشة_أوركيد_محبوبة"><ellipse cx="50" cy="82" rx="14" ry="22" fill="#FFD166" stroke="#212121" stroke-width="1.4" transform="rotate(-22 50 82)"/><ellipse cx="150" cy="82" rx="14" ry="22" fill="#FFD166" stroke="#212121" stroke-width="1.4" transform="rotate(22 150 82)"/><ellipse cx="100" cy="106" rx="60" ry="10" fill="rgba(0,0,0,0.10)"/><path d="M68 62 Q42 118 62 156 Q100 170 138 156 Q158 118 132 62 Q100 50 68 62 Z" fill="#C589E8"/><path d="M62 122 Q100 158 138 122 Q100 140 62 122 Z" fill="#A766CC" opacity="0.55"/><ellipse cx="72" cy="114" rx="8" ry="5" fill="#FF6FB5" opacity="0.55"/><ellipse cx="128" cy="114" rx="8" ry="5" fill="#FF6FB5" opacity="0.55"/><circle cx="84" cy="96" r="11" fill="#FFFFFF"/><circle cx="84" cy="96" r="11" fill="none" stroke="#212121" stroke-width="1.6" opacity="0.4"/><circle cx="85" cy="97" r="6" fill="#212121"/><circle cx="87" cy="95" r="2.2" fill="#FFFFFF"/><circle cx="116" cy="96" r="11" fill="#FFFFFF"/><circle cx="116" cy="96" r="11" fill="none" stroke="#212121" stroke-width="1.6" opacity="0.4"/><circle cx="117" cy="97" r="6" fill="#212121"/><circle cx="119" cy="95" r="2.2" fill="#FFFFFF"/><path d="M94 124 Q100 130 106 124" stroke="#212121" stroke-width="2.4" fill="none" stroke-linecap="round"/></svg>