<svg xmlns="http://www.w3.org/2000/svg" viewBox="0 0 200 200" role="img" aria-label="وحش_ليموني_نشيط"><path d="M76 50 L82 30 L88 50 Z" fill="#FF7043" stroke="#212121" stroke-width="1.4" stroke-linejoin="round"/><path d="M112 50 L118 30 L124 50 Z" fill="#FF7043" stroke="#212121" stroke-width="1.4" stroke-linejoin="round"/><ellipse cx="100" cy="106" rx="60" ry="10" fill="rgba(0,0,0,0.10)"/><path d="M68 62 Q42 118 62 156 Q100 170 138 156 Q158 118 132 62 Q100 50 68 62 Z" fill="#A8E063"/><path d="M62 122 Q100 158 138 122 Q100 140 62 122 Z" fill="#7CB342" opacity="0.55"/><ellipse cx="72" cy="114" rx="8" ry="5" fill="#FF6FB5" opacity="0.55"/><ellipse cx="128" cy="114" rx="8" ry="5" fill="#FF6FB5" opacity="0.55"/><circle cx="100" cy="94" r="22" fill="#FFFFFF"/><circle cx="100" cy="94" r="22" fill="none" stroke="#212121" stroke-width="2.5" opacity="0.4"/><circle cx="102" cy="96" r="11" fill="#212121"/><circle cx="106" cy="92" r="4" fill="#FFFFFF"/><path d="M82 122 Q100 140 118 122 Q100 130 82 122 Z" fill="#5D2F36"/><rect x="90" y="122" width="6" height="6" fill="#FFFFFF"/><rect x="104" y="122" width="6" height="6" fill="#FFFFFF"/></svg>